<?xml version="1.0" encoding="utf-8"?>
<!-- Generator: Adobe Illustrator 16.0.0, SVG Export Plug-In . SVG Version: 6.00 Build 0)  -->
<!DOCTYPE svg PUBLIC "-//W3C//DTD SVG 1.1//EN" "http://www.w3.org/Graphics/SVG/1.1/DTD/svg11.dtd">
<svg version="1.1" id="Layer_1" xmlns="http://www.w3.org/2000/svg" xmlns:xlink="http://www.w3.org/1999/xlink" x="0px" y="0px"
	 width="128px" height="128px" viewBox="0 0 128 128" enable-background="new 0 0 128 128" xml:space="preserve">
<path fill-rule="evenodd" clip-rule="evenodd" fill="#676866" d="M16.734,4.51h93.663c6.534,0,12.111,5.601,12.111,12.59v93.718
	c0,6.535-5.577,12.128-12.111,12.128H16.734c-6.988,0-12.582-5.593-12.582-12.128V17.1C4.153,10.111,9.747,4.51,16.734,4.51
	L16.734,4.51z"/>
<path fill-rule="evenodd" clip-rule="evenodd" fill="#FFFFFF" d="M70.327,66.994H56.813V53.465h13.514V66.994L70.327,66.994z
	 M90.366,53.465H76.853v13.529h13.514V53.465L90.366,53.465z M49.826,73.982H36.312v13.521h13.514V73.982z M70.327,73.982H56.813
	v13.521h13.514V73.982z M49.826,53.465H36.312v13.529h13.514V53.465L49.826,53.465z M103.88,26.892v73.663H23.261V26.892H103.88z
	 M78.718,94.038c5.123-2.805,14.437-12.128,18.167-17.259l0,0c-3.251,2.326-9.785,4.207-14.908,2.805
	C82.446,83.313,81.506,91.233,78.718,94.038L78.718,94.038z M29.786,94.038h39.146c11.179,0,7.45-20.056,7.45-20.056
	c7.458,1.864,20.502,0.932,20.502-6.526V46.947H29.786V94.038z"/>
</svg>
