<?xml version="1.0" encoding="utf-8"?>
<!-- Generator: Adobe Illustrator 16.0.0, SVG Export Plug-In . SVG Version: 6.00 Build 0)  -->
<!DOCTYPE svg PUBLIC "-//W3C//DTD SVG 1.1//EN" "http://www.w3.org/Graphics/SVG/1.1/DTD/svg11.dtd">
<svg version="1.1" id="Layer_1" xmlns="http://www.w3.org/2000/svg" xmlns:xlink="http://www.w3.org/1999/xlink" x="0px" y="0px"
	 width="128px" height="128px" viewBox="0 0 128 128" enable-background="new 0 0 128 128" xml:space="preserve">
<path fill-rule="evenodd" clip-rule="evenodd" fill="#676866" d="M16.266,3.66h94.167c7.018,0,12.176,5.631,12.176,12.656v94.216
	c0,6.568-5.158,12.191-12.176,12.191H16.266c-7.033,0-12.657-5.623-12.657-12.191V16.316C3.608,9.291,9.232,3.66,16.266,3.66
	L16.266,3.66z"/>
<path fill-rule="evenodd" clip-rule="evenodd" fill="#95D0EA" d="M29.37,93.663h39.362c11.245,0,7.962-20.163,7.962-20.163
	c7.033,1.875,20.618,0.938,20.618-6.559v-20.62H29.37V93.663z M78.569,93.663c5.623-2.82,14.994-12.191,18.743-17.351l0,0
	c-3.284,2.339-10.316,4.229-15.46,2.819C82.317,82.881,81.372,90.843,78.569,93.663L78.569,93.663z M103.864,26.16v74.054H22.817
	V26.16H103.864z"/>
<path fill-rule="evenodd" clip-rule="evenodd" fill="#FFFFFF" d="M49.988,52.875H36.403v13.601h13.585V52.875L49.988,52.875z
	 M70.142,66.476H56.54V52.875h13.602V66.476L70.142,66.476z M90.278,52.875H76.694v13.601h13.584V52.875L90.278,52.875z
	 M49.988,73.5H36.403v13.595h13.585V73.5z M70.142,73.5H56.54v13.595h13.602V73.5z"/>
</svg>
